<svg id="Layer_1" data-name="Layer 1" xmlns="http://www.w3.org/2000/svg" width="1080" height="396.74409" viewBox="0 0 1080 396.74409">
  <defs>
    <style>
      .cls-1 {
        fill: #f0c13c;
      }

      .cls-2 {
        fill: #d96a0d;
      }

      .cls-3 {
        fill: #d8060a;
      }

      .cls-4 {
        fill: #1171ab;
      }

      .cls-5 {
        fill: #2a9ed3;
      }

      .cls-6 {
        fill: #155174;
      }
    </style>
  </defs>
  <path class="cls-1" d="M0,222.50727C165.7411-37.49562,430.599-17.22513,547.75048,34.7071c0,0-154.69816-39.76261-312.10834,40.17531-86.29629,43.824-117.93553,78.80108-117.93553,78.80108C56.00084,178.12732,0,222.50727,0,222.50727Z" transform="translate(0 -2.47019)"/>
  <path class="cls-2" d="M129.5225,158.65122C236.24068,48.95207,428.06514-4.10893,596.93624,54.76784c0,0-71.24482-3.7291-146.663,29.06141,0,0-76.31244,2.68286-134.73916,16.39525C239.05231,118.1743,129.5225,158.65122,129.5225,158.65122Z" transform="translate(0 -2.47019)"/>
  <path class="cls-3" d="M613.64775,59.89168l77.56962,56.167s-50.93219-15.408-99.48937-23.92217C547.75048,84.42544,472.34075,82.0013,472.34075,82.0013,553.12463,52.19175,613.64775,59.89168,613.64775,59.89168Z" transform="translate(0 -2.47019)"/>
  <path class="cls-4" d="M622.19983,58.99825c209.48662,9.62813,323.3591,128.86633,377.01629,229.6226,0,0-59.54458-63.56886-175.57825-117.59867-37.54231-17.48116-105.22771-37.85813-105.22771-37.85813s-12.66906-14.30858-48.58957-41.95694" transform="translate(0 -2.47019)"/>
  <path class="cls-5" d="M622.19983,58.99825c118.94011,23.48957,237.50759,61.79484,311.43528,175.36922,0,0-34.57908-23.1024-109.99724-63.34529-36.53666-19.49585-105.22771-37.85813-105.22771-37.85813s-3.58162-8.51528-48.58957-41.95694" transform="translate(0 -2.47019)"/>
  <path class="cls-6" d="M1080,378.04951s-16.39525-23.84764-34.57908-44.71433-31.3-31.3-31.3-31.3-25.9343-57.68148-83.61578-120.72868S792.48689,82.935,792.48689,82.935s87.04389,19.6743,164.54872,92.11151C1053.97689,265.64928,1080,378.04951,1080,378.04951Z" transform="translate(0 -2.47019)"/>
  <path d="M268.73312,194.27362c-23.69858-23.69858-42.9258-22.35714-42.9258-22.35714H108.20865v225.3602H214.33683a60.181,60.181,0,0,0,19.87744-3.36506c11.34684-3.96973,30.84572-11.33727,45.10121-27.78593,16.566-19.11461,18.03478-55.59485,18.03478-89.13056S292.4317,217.9722,268.73312,194.27362Zm-60.05973,164.6978H156.202V208.73128h39.57464a65.81754,65.81754,0,0,1,31.632,7.79455,36.62828,36.62828,0,0,1,10.32248,7.85544,43.22827,43.22827,0,0,1,5.93858,10.28819,66.1689,66.1689,0,0,1,5.323,23.832l-.4645,60.475a40.70831,40.70831,0,0,1-3.56243,16.34384v0a40.21562,40.21562,0,0,1-16.3208,18.21759h0A39.42071,39.42071,0,0,1,208.67339,358.97142Z" transform="translate(0 -2.47019)"/>
  <path d="M398.25559,174.74837h44.11813V340.00468a52.14993,52.14993,0,0,1-7.33785,26.67382l0,0a53.28592,53.28592,0,0,1-20.6044,19.70428l-5.617,3.01234a82.70022,82.70022,0,0,1-39.08547,9.81914h-2.52586a81.08847,81.08847,0,0,1-40.03322-10.57124l0,0a43.20456,43.20456,0,0,1-15.8508-15.56712l0,0a82.01635,82.01635,0,0,1-11.435-41.7726v-6.31477l41.28623-4.39691.21829,12.1246A20.01633,20.01633,0,0,0,352.721,350.59351l1.57347.75759a33.50866,33.50866,0,0,0,31.09766-1.06149l1.53813-.87447a19.2078,19.2078,0,0,0,9.71355-16.5021Z" transform="translate(0 -2.47019)"/>
  <path d="M727.055,174.74837h-43.82l-67.0715,172.89538L563.4005,263.5808l84.063-88.83243H587.5462L493.64611,273.418V174.74837H449.379V397.27668h44.26715V332.44086l38.00724-38.00716,62.60006,102.843h47.24814l16.69335-51.42149h93.00576l18.78,51.42149h47.39716ZM668.33014,310.67993l34.8376-87.93645,37.30147,87.93645Z" transform="translate(0 -2.47019)"/>
</svg>
